%TF.GenerationSoftware,KiCad,Pcbnew,(5.1.9)-1*%
%TF.CreationDate,2021-08-03T11:56:42-05:00*%
%TF.ProjectId,prototipo_2,70726f74-6f74-4697-906f-5f322e6b6963,rev?*%
%TF.SameCoordinates,Original*%
%TF.FileFunction,Soldermask,Top*%
%TF.FilePolarity,Negative*%
%FSLAX46Y46*%
G04 Gerber Fmt 4.6, Leading zero omitted, Abs format (unit mm)*
G04 Created by KiCad (PCBNEW (5.1.9)-1) date 2021-08-03 11:56:42*
%MOMM*%
%LPD*%
G01*
G04 APERTURE LIST*
%ADD10O,1.700000X1.700000*%
%ADD11R,1.700000X1.700000*%
%ADD12O,2.400000X2.400000*%
%ADD13C,2.400000*%
%ADD14C,1.800000*%
%ADD15R,1.800000X1.800000*%
G04 APERTURE END LIST*
D10*
%TO.C,Mux_izq1*%
X165100000Y-97790000D03*
X165100000Y-95250000D03*
X165100000Y-92710000D03*
X165100000Y-90170000D03*
X165100000Y-87630000D03*
X165100000Y-85090000D03*
X165100000Y-82550000D03*
X165100000Y-80010000D03*
X165100000Y-77470000D03*
X165100000Y-74930000D03*
X165100000Y-72390000D03*
D11*
X165100000Y-69850000D03*
%TD*%
D10*
%TO.C,ALIMENTACION1*%
X158851600Y-52666900D03*
D11*
X161391600Y-52666900D03*
%TD*%
D10*
%TO.C,Widora_izq1*%
X86160000Y-118110000D03*
X86160000Y-115570000D03*
X86160000Y-113030000D03*
X86160000Y-110490000D03*
X86160000Y-107950000D03*
X86160000Y-105410000D03*
X86160000Y-102870000D03*
X86160000Y-100330000D03*
X86160000Y-97790000D03*
X86160000Y-95250000D03*
X86160000Y-92710000D03*
X86160000Y-90170000D03*
X86160000Y-87630000D03*
X86160000Y-85090000D03*
X86160000Y-82550000D03*
X86160000Y-80010000D03*
X86160000Y-77470000D03*
X86160000Y-74930000D03*
X86160000Y-72390000D03*
D11*
X86160000Y-69850000D03*
%TD*%
D10*
%TO.C,Widora_der1*%
X108970000Y-69850000D03*
X108970000Y-72390000D03*
X108970000Y-74930000D03*
X108970000Y-77470000D03*
X108970000Y-80010000D03*
X108970000Y-82550000D03*
X108970000Y-85090000D03*
X108970000Y-87630000D03*
X108970000Y-90170000D03*
X108970000Y-92710000D03*
X108970000Y-95250000D03*
X108970000Y-97790000D03*
X108970000Y-100330000D03*
X108970000Y-102870000D03*
X108970000Y-105410000D03*
X108970000Y-107950000D03*
X108970000Y-110490000D03*
X108970000Y-113030000D03*
X108970000Y-115570000D03*
D11*
X108970000Y-118110000D03*
%TD*%
D10*
%TO.C,Widora_aux_izq1*%
X77470000Y-118110000D03*
X77470000Y-115570000D03*
X77470000Y-113030000D03*
X77470000Y-110490000D03*
X77470000Y-107950000D03*
X77470000Y-105410000D03*
X77470000Y-102870000D03*
X77470000Y-100330000D03*
X77470000Y-97790000D03*
X77470000Y-95250000D03*
X77470000Y-92710000D03*
X77470000Y-90170000D03*
X77470000Y-87630000D03*
X77470000Y-85090000D03*
X77470000Y-82550000D03*
X77470000Y-80010000D03*
X77470000Y-77470000D03*
X77470000Y-74930000D03*
X77470000Y-72390000D03*
D11*
X77470000Y-69850000D03*
%TD*%
D10*
%TO.C,Widora_aux_der1*%
X100280000Y-69850000D03*
X100280000Y-72390000D03*
X100280000Y-74930000D03*
X100280000Y-77470000D03*
X100280000Y-80010000D03*
X100280000Y-82550000D03*
X100280000Y-85090000D03*
X100280000Y-87630000D03*
X100280000Y-90170000D03*
X100280000Y-92710000D03*
X100280000Y-95250000D03*
X100280000Y-97790000D03*
X100280000Y-100330000D03*
X100280000Y-102870000D03*
X100280000Y-105410000D03*
X100280000Y-107950000D03*
X100280000Y-110490000D03*
X100280000Y-113030000D03*
X100280000Y-115570000D03*
D11*
X100280000Y-118110000D03*
%TD*%
D10*
%TO.C,Vel_traser1*%
X116840000Y-146050000D03*
X114300000Y-146050000D03*
D11*
X111760000Y-146050000D03*
%TD*%
D10*
%TO.C,Vel_delant1*%
X102870000Y-146050000D03*
X100330000Y-146050000D03*
D11*
X97790000Y-146050000D03*
%TD*%
D12*
%TO.C,R3*%
X141566900Y-60553600D03*
D13*
X154266900Y-60553600D03*
%TD*%
D12*
%TO.C,R2*%
X119240300Y-53060600D03*
D13*
X131940300Y-53060600D03*
%TD*%
D12*
%TO.C,R1*%
X107657900Y-60782200D03*
D13*
X94957900Y-60782200D03*
%TD*%
D10*
%TO.C,Mux_der1*%
X181880000Y-97790000D03*
X181880000Y-95250000D03*
X181880000Y-92710000D03*
X181880000Y-90170000D03*
X181880000Y-87630000D03*
X181880000Y-85090000D03*
X181880000Y-82550000D03*
X181880000Y-80010000D03*
X181880000Y-77470000D03*
X181880000Y-74930000D03*
X181880000Y-72390000D03*
D11*
X181880000Y-69850000D03*
%TD*%
D10*
%TO.C,Laser_amort_izq1*%
X193040000Y-146050000D03*
X190500000Y-146050000D03*
X187960000Y-146050000D03*
D11*
X185420000Y-146050000D03*
%TD*%
D10*
%TO.C,Laser_amort_der1*%
X212090000Y-118110000D03*
X212090000Y-120650000D03*
X212090000Y-123190000D03*
D11*
X212090000Y-125730000D03*
%TD*%
D10*
%TO.C,Laser_amor_delant1*%
X212090000Y-146050000D03*
X209550000Y-146050000D03*
X207010000Y-146050000D03*
D11*
X204470000Y-146050000D03*
%TD*%
D10*
%TO.C,J14*%
X202880000Y-118110000D03*
D11*
X202880000Y-120650000D03*
%TD*%
D10*
%TO.C,J13*%
X193040000Y-136840000D03*
D11*
X190500000Y-136840000D03*
%TD*%
D10*
%TO.C,J12*%
X212090000Y-136840000D03*
D11*
X209550000Y-136840000D03*
%TD*%
D10*
%TO.C,IMU4*%
X212090000Y-110490000D03*
X212090000Y-107950000D03*
X212090000Y-105410000D03*
X212090000Y-102870000D03*
X212090000Y-100330000D03*
D11*
X212090000Y-97790000D03*
%TD*%
D10*
%TO.C,IMU3*%
X212090000Y-87630000D03*
X212090000Y-85090000D03*
X212090000Y-82550000D03*
X212090000Y-80010000D03*
X212090000Y-77470000D03*
D11*
X212090000Y-74930000D03*
%TD*%
D10*
%TO.C,IMU2*%
X212090000Y-64770000D03*
X212090000Y-62230000D03*
X212090000Y-59690000D03*
X212090000Y-57150000D03*
X212090000Y-54610000D03*
D11*
X212090000Y-52070000D03*
%TD*%
D10*
%TO.C,IMU1*%
X168910000Y-146050000D03*
X166370000Y-146050000D03*
X163830000Y-146050000D03*
X161290000Y-146050000D03*
X158750000Y-146050000D03*
D11*
X156210000Y-146050000D03*
%TD*%
D10*
%TO.C,IMU0*%
X138430000Y-146050000D03*
X135890000Y-146050000D03*
X133350000Y-146050000D03*
X130810000Y-146050000D03*
X128270000Y-146050000D03*
D11*
X125730000Y-146050000D03*
%TD*%
%TO.C,GPS1*%
X140970000Y-104140000D03*
D10*
X138430000Y-104140000D03*
X135890000Y-104140000D03*
X133350000Y-104140000D03*
%TD*%
D14*
%TO.C,D3*%
X133248400Y-60553600D03*
D15*
X135788400Y-60553600D03*
%TD*%
D14*
%TO.C,D2*%
X125272800Y-60617100D03*
D15*
X127812800Y-60617100D03*
%TD*%
D14*
%TO.C,D1*%
X116027200Y-60794900D03*
D15*
X118567200Y-60794900D03*
%TD*%
D10*
%TO.C,Conv_lvl_izq1*%
X132080000Y-83820000D03*
X132080000Y-81280000D03*
X132080000Y-78740000D03*
X132080000Y-76200000D03*
X132080000Y-73660000D03*
D11*
X132080000Y-71120000D03*
%TD*%
D10*
%TO.C,Conv_lvl_der1*%
X143780000Y-83820000D03*
X143780000Y-81280000D03*
X143780000Y-78740000D03*
X143780000Y-76200000D03*
X143780000Y-73660000D03*
D11*
X143780000Y-71120000D03*
%TD*%
M02*
