%TF.GenerationSoftware,KiCad,Pcbnew,(5.1.9)-1*%
%TF.CreationDate,2021-08-03T11:56:42-05:00*%
%TF.ProjectId,prototipo_2,70726f74-6f74-4697-906f-5f322e6b6963,rev?*%
%TF.SameCoordinates,Original*%
%TF.FileFunction,Copper,L2,Bot*%
%TF.FilePolarity,Positive*%
%FSLAX46Y46*%
G04 Gerber Fmt 4.6, Leading zero omitted, Abs format (unit mm)*
G04 Created by KiCad (PCBNEW (5.1.9)-1) date 2021-08-03 11:56:42*
%MOMM*%
%LPD*%
G01*
G04 APERTURE LIST*
%TA.AperFunction,ComponentPad*%
%ADD10O,1.700000X1.700000*%
%TD*%
%TA.AperFunction,ComponentPad*%
%ADD11R,1.700000X1.700000*%
%TD*%
%TA.AperFunction,ComponentPad*%
%ADD12O,2.400000X2.400000*%
%TD*%
%TA.AperFunction,ComponentPad*%
%ADD13C,2.400000*%
%TD*%
%TA.AperFunction,ComponentPad*%
%ADD14C,1.800000*%
%TD*%
%TA.AperFunction,ComponentPad*%
%ADD15R,1.800000X1.800000*%
%TD*%
%TA.AperFunction,Conductor*%
%ADD16C,0.400000*%
%TD*%
%TA.AperFunction,Conductor*%
%ADD17C,0.300000*%
%TD*%
G04 APERTURE END LIST*
D10*
%TO.P,Mux_izq1,12*%
%TO.N,/SC1*%
X165100000Y-97790000D03*
%TO.P,Mux_izq1,11*%
%TO.N,/SD1*%
X165100000Y-95250000D03*
%TO.P,Mux_izq1,10*%
%TO.N,/SC0*%
X165100000Y-92710000D03*
%TO.P,Mux_izq1,9*%
%TO.N,/SD0*%
X165100000Y-90170000D03*
%TO.P,Mux_izq1,8*%
%TO.N,GND*%
X165100000Y-87630000D03*
%TO.P,Mux_izq1,7*%
X165100000Y-85090000D03*
%TO.P,Mux_izq1,6*%
X165100000Y-82550000D03*
%TO.P,Mux_izq1,5*%
%TO.N,/RST*%
X165100000Y-80010000D03*
%TO.P,Mux_izq1,4*%
%TO.N,/SCL*%
X165100000Y-77470000D03*
%TO.P,Mux_izq1,3*%
%TO.N,/SDA*%
X165100000Y-74930000D03*
%TO.P,Mux_izq1,2*%
%TO.N,GND*%
X165100000Y-72390000D03*
D11*
%TO.P,Mux_izq1,1*%
%TO.N,+3V3*%
X165100000Y-69850000D03*
%TD*%
D10*
%TO.P,ALIMENTACION1,2*%
%TO.N,GND*%
X158851600Y-52666900D03*
D11*
%TO.P,ALIMENTACION1,1*%
%TO.N,+3V3*%
X161391600Y-52666900D03*
%TD*%
D10*
%TO.P,Widora_izq1,20*%
%TO.N,GND*%
X86160000Y-118110000D03*
%TO.P,Widora_izq1,19*%
%TO.N,/SDA*%
X86160000Y-115570000D03*
%TO.P,Widora_izq1,18*%
%TO.N,/TXD0*%
X86160000Y-113030000D03*
%TO.P,Widora_izq1,17*%
%TO.N,/RXD0*%
X86160000Y-110490000D03*
%TO.P,Widora_izq1,16*%
%TO.N,/SCL*%
X86160000Y-107950000D03*
%TO.P,Widora_izq1,15*%
%TO.N,/IO19*%
X86160000Y-105410000D03*
%TO.P,Widora_izq1,14*%
%TO.N,/IO23*%
X86160000Y-102870000D03*
%TO.P,Widora_izq1,13*%
%TO.N,/IO18*%
X86160000Y-100330000D03*
%TO.P,Widora_izq1,12*%
%TO.N,/IO5*%
X86160000Y-97790000D03*
%TO.P,Widora_izq1,11*%
%TO.N,/SPID*%
X86160000Y-95250000D03*
%TO.P,Widora_izq1,10*%
%TO.N,/SPIQ*%
X86160000Y-92710000D03*
%TO.P,Widora_izq1,9*%
%TO.N,/CLK*%
X86160000Y-90170000D03*
%TO.P,Widora_izq1,8*%
%TO.N,/CS0*%
X86160000Y-87630000D03*
%TO.P,Widora_izq1,7*%
%TO.N,/WP*%
X86160000Y-85090000D03*
%TO.P,Widora_izq1,6*%
%TO.N,/HD*%
X86160000Y-82550000D03*
%TO.P,Widora_izq1,5*%
%TO.N,/TX2*%
X86160000Y-80010000D03*
%TO.P,Widora_izq1,4*%
%TO.N,/RX2*%
X86160000Y-77470000D03*
%TO.P,Widora_izq1,3*%
%TO.N,+3V3*%
X86160000Y-74930000D03*
%TO.P,Widora_izq1,2*%
%TO.N,GND*%
X86160000Y-72390000D03*
D11*
%TO.P,Widora_izq1,1*%
%TO.N,+3V3*%
X86160000Y-69850000D03*
%TD*%
D10*
%TO.P,Widora_der1,20*%
%TO.N,+5V*%
X108970000Y-69850000D03*
%TO.P,Widora_der1,19*%
%TO.N,GND*%
X108970000Y-72390000D03*
%TO.P,Widora_der1,18*%
%TO.N,/IO4*%
X108970000Y-74930000D03*
%TO.P,Widora_der1,17*%
%TO.N,/IO0*%
X108970000Y-77470000D03*
%TO.P,Widora_der1,16*%
%TO.N,/IO2*%
X108970000Y-80010000D03*
%TO.P,Widora_der1,15*%
%TO.N,/IO15*%
X108970000Y-82550000D03*
%TO.P,Widora_der1,14*%
%TO.N,/IO13*%
X108970000Y-85090000D03*
%TO.P,Widora_der1,13*%
%TO.N,/IO12*%
X108970000Y-87630000D03*
%TO.P,Widora_der1,12*%
%TO.N,/IO14*%
X108970000Y-90170000D03*
%TO.P,Widora_der1,11*%
%TO.N,/IO27*%
X108970000Y-92710000D03*
%TO.P,Widora_der1,10*%
%TO.N,/IO26*%
X108970000Y-95250000D03*
%TO.P,Widora_der1,9*%
%TO.N,/IO25*%
X108970000Y-97790000D03*
%TO.P,Widora_der1,8*%
%TO.N,/IO33*%
X108970000Y-100330000D03*
%TO.P,Widora_der1,7*%
%TO.N,/IO32*%
X108970000Y-102870000D03*
%TO.P,Widora_der1,6*%
%TO.N,/RXO1*%
X108970000Y-105410000D03*
%TO.P,Widora_der1,5*%
%TO.N,/RXO2*%
X108970000Y-107950000D03*
%TO.P,Widora_der1,4*%
%TO.N,/PU*%
X108970000Y-110490000D03*
%TO.P,Widora_der1,3*%
%TO.N,/VN*%
X108970000Y-113030000D03*
%TO.P,Widora_der1,2*%
%TO.N,/VP*%
X108970000Y-115570000D03*
D11*
%TO.P,Widora_der1,1*%
%TO.N,GND*%
X108970000Y-118110000D03*
%TD*%
D10*
%TO.P,Widora_aux_izq1,20*%
%TO.N,GND*%
X77470000Y-118110000D03*
%TO.P,Widora_aux_izq1,19*%
%TO.N,/SDA*%
X77470000Y-115570000D03*
%TO.P,Widora_aux_izq1,18*%
%TO.N,/TXD0*%
X77470000Y-113030000D03*
%TO.P,Widora_aux_izq1,17*%
%TO.N,/RXD0*%
X77470000Y-110490000D03*
%TO.P,Widora_aux_izq1,16*%
%TO.N,/SCL*%
X77470000Y-107950000D03*
%TO.P,Widora_aux_izq1,15*%
%TO.N,/IO19*%
X77470000Y-105410000D03*
%TO.P,Widora_aux_izq1,14*%
%TO.N,/IO23*%
X77470000Y-102870000D03*
%TO.P,Widora_aux_izq1,13*%
%TO.N,/IO18*%
X77470000Y-100330000D03*
%TO.P,Widora_aux_izq1,12*%
%TO.N,/IO5*%
X77470000Y-97790000D03*
%TO.P,Widora_aux_izq1,11*%
%TO.N,/SPID*%
X77470000Y-95250000D03*
%TO.P,Widora_aux_izq1,10*%
%TO.N,/SPIQ*%
X77470000Y-92710000D03*
%TO.P,Widora_aux_izq1,9*%
%TO.N,/CLK*%
X77470000Y-90170000D03*
%TO.P,Widora_aux_izq1,8*%
%TO.N,/CS0*%
X77470000Y-87630000D03*
%TO.P,Widora_aux_izq1,7*%
%TO.N,/WP*%
X77470000Y-85090000D03*
%TO.P,Widora_aux_izq1,6*%
%TO.N,/HD*%
X77470000Y-82550000D03*
%TO.P,Widora_aux_izq1,5*%
%TO.N,/TX2*%
X77470000Y-80010000D03*
%TO.P,Widora_aux_izq1,4*%
%TO.N,/RX2*%
X77470000Y-77470000D03*
%TO.P,Widora_aux_izq1,3*%
%TO.N,+3V3*%
X77470000Y-74930000D03*
%TO.P,Widora_aux_izq1,2*%
%TO.N,GND*%
X77470000Y-72390000D03*
D11*
%TO.P,Widora_aux_izq1,1*%
%TO.N,+3V3*%
X77470000Y-69850000D03*
%TD*%
D10*
%TO.P,Widora_aux_der1,20*%
%TO.N,+5V*%
X100280000Y-69850000D03*
%TO.P,Widora_aux_der1,19*%
%TO.N,GND*%
X100280000Y-72390000D03*
%TO.P,Widora_aux_der1,18*%
%TO.N,/IO4*%
X100280000Y-74930000D03*
%TO.P,Widora_aux_der1,17*%
%TO.N,/IO0*%
X100280000Y-77470000D03*
%TO.P,Widora_aux_der1,16*%
%TO.N,/IO2*%
X100280000Y-80010000D03*
%TO.P,Widora_aux_der1,15*%
%TO.N,/IO15*%
X100280000Y-82550000D03*
%TO.P,Widora_aux_der1,14*%
%TO.N,/IO13*%
X100280000Y-85090000D03*
%TO.P,Widora_aux_der1,13*%
%TO.N,/IO12*%
X100280000Y-87630000D03*
%TO.P,Widora_aux_der1,12*%
%TO.N,/IO14*%
X100280000Y-90170000D03*
%TO.P,Widora_aux_der1,11*%
%TO.N,/IO27*%
X100280000Y-92710000D03*
%TO.P,Widora_aux_der1,10*%
%TO.N,/IO26*%
X100280000Y-95250000D03*
%TO.P,Widora_aux_der1,9*%
%TO.N,/IO25*%
X100280000Y-97790000D03*
%TO.P,Widora_aux_der1,8*%
%TO.N,/IO33*%
X100280000Y-100330000D03*
%TO.P,Widora_aux_der1,7*%
%TO.N,/IO32*%
X100280000Y-102870000D03*
%TO.P,Widora_aux_der1,6*%
%TO.N,/RXO1*%
X100280000Y-105410000D03*
%TO.P,Widora_aux_der1,5*%
%TO.N,/RXO2*%
X100280000Y-107950000D03*
%TO.P,Widora_aux_der1,4*%
%TO.N,/PU*%
X100280000Y-110490000D03*
%TO.P,Widora_aux_der1,3*%
%TO.N,/VN*%
X100280000Y-113030000D03*
%TO.P,Widora_aux_der1,2*%
%TO.N,/VP*%
X100280000Y-115570000D03*
D11*
%TO.P,Widora_aux_der1,1*%
%TO.N,GND*%
X100280000Y-118110000D03*
%TD*%
D10*
%TO.P,Vel_traser1,3*%
%TO.N,+5V*%
X116840000Y-146050000D03*
%TO.P,Vel_traser1,2*%
%TO.N,/RXI2*%
X114300000Y-146050000D03*
D11*
%TO.P,Vel_traser1,1*%
%TO.N,GND*%
X111760000Y-146050000D03*
%TD*%
D10*
%TO.P,Vel_delant1,3*%
%TO.N,+5V*%
X102870000Y-146050000D03*
%TO.P,Vel_delant1,2*%
%TO.N,/RXI1*%
X100330000Y-146050000D03*
D11*
%TO.P,Vel_delant1,1*%
%TO.N,GND*%
X97790000Y-146050000D03*
%TD*%
D12*
%TO.P,R3,2*%
%TO.N,Net-(D3-Pad1)*%
X141566900Y-60553600D03*
D13*
%TO.P,R3,1*%
%TO.N,GND*%
X154266900Y-60553600D03*
%TD*%
D12*
%TO.P,R2,2*%
%TO.N,Net-(D2-Pad1)*%
X119240300Y-53060600D03*
D13*
%TO.P,R2,1*%
%TO.N,GND*%
X131940300Y-53060600D03*
%TD*%
D12*
%TO.P,R1,2*%
%TO.N,Net-(D1-Pad1)*%
X107657900Y-60782200D03*
D13*
%TO.P,R1,1*%
%TO.N,GND*%
X94957900Y-60782200D03*
%TD*%
D10*
%TO.P,Mux_der1,12*%
%TO.N,/SC7*%
X181880000Y-97790000D03*
%TO.P,Mux_der1,11*%
%TO.N,/SD7*%
X181880000Y-95250000D03*
%TO.P,Mux_der1,10*%
%TO.N,/SC6*%
X181880000Y-92710000D03*
%TO.P,Mux_der1,9*%
%TO.N,/SD6*%
X181880000Y-90170000D03*
%TO.P,Mux_der1,8*%
%TO.N,/SC5*%
X181880000Y-87630000D03*
%TO.P,Mux_der1,7*%
%TO.N,/SD5*%
X181880000Y-85090000D03*
%TO.P,Mux_der1,6*%
%TO.N,/SC4*%
X181880000Y-82550000D03*
%TO.P,Mux_der1,5*%
%TO.N,/SD4*%
X181880000Y-80010000D03*
%TO.P,Mux_der1,4*%
%TO.N,/SC3*%
X181880000Y-77470000D03*
%TO.P,Mux_der1,3*%
%TO.N,/SD3*%
X181880000Y-74930000D03*
%TO.P,Mux_der1,2*%
%TO.N,/SC2*%
X181880000Y-72390000D03*
D11*
%TO.P,Mux_der1,1*%
%TO.N,/SD2*%
X181880000Y-69850000D03*
%TD*%
D10*
%TO.P,Laser_amort_izq1,4*%
%TO.N,/SD5*%
X193040000Y-146050000D03*
%TO.P,Laser_amort_izq1,3*%
%TO.N,/SC5*%
X190500000Y-146050000D03*
%TO.P,Laser_amort_izq1,2*%
%TO.N,GND*%
X187960000Y-146050000D03*
D11*
%TO.P,Laser_amort_izq1,1*%
%TO.N,+3V3*%
X185420000Y-146050000D03*
%TD*%
D10*
%TO.P,Laser_amort_der1,4*%
%TO.N,/SD6*%
X212090000Y-118110000D03*
%TO.P,Laser_amort_der1,3*%
%TO.N,/SC6*%
X212090000Y-120650000D03*
%TO.P,Laser_amort_der1,2*%
%TO.N,GND*%
X212090000Y-123190000D03*
D11*
%TO.P,Laser_amort_der1,1*%
%TO.N,+3V3*%
X212090000Y-125730000D03*
%TD*%
D10*
%TO.P,Laser_amor_delant1,4*%
%TO.N,/SD7*%
X212090000Y-146050000D03*
%TO.P,Laser_amor_delant1,3*%
%TO.N,/SC7*%
X209550000Y-146050000D03*
%TO.P,Laser_amor_delant1,2*%
%TO.N,GND*%
X207010000Y-146050000D03*
D11*
%TO.P,Laser_amor_delant1,1*%
%TO.N,+3V3*%
X204470000Y-146050000D03*
%TD*%
D10*
%TO.P,J14,2*%
%TO.N,/X6*%
X202880000Y-118110000D03*
D11*
%TO.P,J14,1*%
%TO.N,/G6*%
X202880000Y-120650000D03*
%TD*%
D10*
%TO.P,J13,2*%
%TO.N,/X7*%
X193040000Y-136840000D03*
D11*
%TO.P,J13,1*%
%TO.N,/G7*%
X190500000Y-136840000D03*
%TD*%
D10*
%TO.P,J12,2*%
%TO.N,/X5*%
X212090000Y-136840000D03*
D11*
%TO.P,J12,1*%
%TO.N,/G5*%
X209550000Y-136840000D03*
%TD*%
D10*
%TO.P,IMU4,6*%
%TO.N,/FSYNC4*%
X212090000Y-110490000D03*
%TO.P,IMU4,5*%
%TO.N,/INT4*%
X212090000Y-107950000D03*
%TO.P,IMU4,4*%
%TO.N,/SC4*%
X212090000Y-105410000D03*
%TO.P,IMU4,3*%
%TO.N,/SD4*%
X212090000Y-102870000D03*
%TO.P,IMU4,2*%
%TO.N,GND*%
X212090000Y-100330000D03*
D11*
%TO.P,IMU4,1*%
%TO.N,+3V3*%
X212090000Y-97790000D03*
%TD*%
D10*
%TO.P,IMU3,6*%
%TO.N,/FSYNC3*%
X212090000Y-87630000D03*
%TO.P,IMU3,5*%
%TO.N,/INT3*%
X212090000Y-85090000D03*
%TO.P,IMU3,4*%
%TO.N,/SC3*%
X212090000Y-82550000D03*
%TO.P,IMU3,3*%
%TO.N,/SD3*%
X212090000Y-80010000D03*
%TO.P,IMU3,2*%
%TO.N,GND*%
X212090000Y-77470000D03*
D11*
%TO.P,IMU3,1*%
%TO.N,+3V3*%
X212090000Y-74930000D03*
%TD*%
D10*
%TO.P,IMU2,6*%
%TO.N,/FSYNC2*%
X212090000Y-64770000D03*
%TO.P,IMU2,5*%
%TO.N,/INT2*%
X212090000Y-62230000D03*
%TO.P,IMU2,4*%
%TO.N,/SC2*%
X212090000Y-59690000D03*
%TO.P,IMU2,3*%
%TO.N,/SD2*%
X212090000Y-57150000D03*
%TO.P,IMU2,2*%
%TO.N,GND*%
X212090000Y-54610000D03*
D11*
%TO.P,IMU2,1*%
%TO.N,+3V3*%
X212090000Y-52070000D03*
%TD*%
D10*
%TO.P,IMU1,6*%
%TO.N,/FSYNC1*%
X168910000Y-146050000D03*
%TO.P,IMU1,5*%
%TO.N,/INT1*%
X166370000Y-146050000D03*
%TO.P,IMU1,4*%
%TO.N,/SC1*%
X163830000Y-146050000D03*
%TO.P,IMU1,3*%
%TO.N,/SD1*%
X161290000Y-146050000D03*
%TO.P,IMU1,2*%
%TO.N,GND*%
X158750000Y-146050000D03*
D11*
%TO.P,IMU1,1*%
%TO.N,+3V3*%
X156210000Y-146050000D03*
%TD*%
D10*
%TO.P,IMU0,6*%
%TO.N,/FSYNC0*%
X138430000Y-146050000D03*
%TO.P,IMU0,5*%
%TO.N,/INT0*%
X135890000Y-146050000D03*
%TO.P,IMU0,4*%
%TO.N,/SC0*%
X133350000Y-146050000D03*
%TO.P,IMU0,3*%
%TO.N,/SD0*%
X130810000Y-146050000D03*
%TO.P,IMU0,2*%
%TO.N,GND*%
X128270000Y-146050000D03*
D11*
%TO.P,IMU0,1*%
%TO.N,+3V3*%
X125730000Y-146050000D03*
%TD*%
%TO.P,GPS1,1*%
%TO.N,GND*%
X140970000Y-104140000D03*
D10*
%TO.P,GPS1,2*%
%TO.N,/RX2*%
X138430000Y-104140000D03*
%TO.P,GPS1,3*%
%TO.N,/TX2*%
X135890000Y-104140000D03*
%TO.P,GPS1,4*%
%TO.N,+5V*%
X133350000Y-104140000D03*
%TD*%
D14*
%TO.P,D3,2*%
%TO.N,/IO12*%
X133248400Y-60553600D03*
D15*
%TO.P,D3,1*%
%TO.N,Net-(D3-Pad1)*%
X135788400Y-60553600D03*
%TD*%
D14*
%TO.P,D2,2*%
%TO.N,/IO13*%
X125272800Y-60617100D03*
D15*
%TO.P,D2,1*%
%TO.N,Net-(D2-Pad1)*%
X127812800Y-60617100D03*
%TD*%
D14*
%TO.P,D1,2*%
%TO.N,/IO15*%
X116027200Y-60794900D03*
D15*
%TO.P,D1,1*%
%TO.N,Net-(D1-Pad1)*%
X118567200Y-60794900D03*
%TD*%
D10*
%TO.P,Conv_lvl_izq1,6*%
%TO.N,/TXI2*%
X132080000Y-83820000D03*
%TO.P,Conv_lvl_izq1,5*%
%TO.N,/RXO2*%
X132080000Y-81280000D03*
%TO.P,Conv_lvl_izq1,4*%
%TO.N,GND*%
X132080000Y-78740000D03*
%TO.P,Conv_lvl_izq1,3*%
%TO.N,+3V3*%
X132080000Y-76200000D03*
%TO.P,Conv_lvl_izq1,2*%
%TO.N,/RXO1*%
X132080000Y-73660000D03*
D11*
%TO.P,Conv_lvl_izq1,1*%
%TO.N,/TXI1*%
X132080000Y-71120000D03*
%TD*%
D10*
%TO.P,Conv_lvl_der1,6*%
%TO.N,/TXO1*%
X143780000Y-83820000D03*
%TO.P,Conv_lvl_der1,5*%
%TO.N,/RXI1*%
X143780000Y-81280000D03*
%TO.P,Conv_lvl_der1,4*%
%TO.N,+5V*%
X143780000Y-78740000D03*
%TO.P,Conv_lvl_der1,3*%
%TO.N,GND*%
X143780000Y-76200000D03*
%TO.P,Conv_lvl_der1,2*%
%TO.N,/RXI2*%
X143780000Y-73660000D03*
D11*
%TO.P,Conv_lvl_der1,1*%
%TO.N,/TXO2*%
X143780000Y-71120000D03*
%TD*%
D16*
%TO.N,+3V3*%
X151130000Y-151130000D02*
X130810000Y-151130000D01*
X161290000Y-140970000D02*
X180340000Y-140970000D01*
X161290000Y-140970000D02*
X158597600Y-140970000D01*
X156210000Y-143357600D02*
X156210000Y-146050000D01*
X158597600Y-140970000D02*
X156210000Y-143357600D01*
X151130000Y-151130000D02*
X153631900Y-151130000D01*
X156210000Y-148551900D02*
X156210000Y-146050000D01*
X153631900Y-151130000D02*
X156210000Y-148551900D01*
X130810000Y-151130000D02*
X127825500Y-151130000D01*
X125730000Y-149034500D02*
X125730000Y-146050000D01*
X127825500Y-151130000D02*
X125730000Y-149034500D01*
X180340000Y-140970000D02*
X183692800Y-140970000D01*
X204470000Y-146050000D02*
X204470000Y-143929100D01*
X204470000Y-143929100D02*
X201510900Y-140970000D01*
X185420000Y-141033500D02*
X185356500Y-140970000D01*
X185420000Y-146050000D02*
X185420000Y-141033500D01*
X185356500Y-140970000D02*
X183692800Y-140970000D01*
X201510900Y-140970000D02*
X185356500Y-140970000D01*
%TO.N,GND*%
X187960000Y-148508720D02*
X187960000Y-146050000D01*
X185338720Y-151130000D02*
X187960000Y-148508720D01*
X163830000Y-151130000D02*
X185338720Y-151130000D01*
X163830000Y-151130000D02*
X162029140Y-151130000D01*
X162029140Y-151130000D02*
X158798260Y-147899120D01*
X158798260Y-146098260D02*
X158750000Y-146050000D01*
X158798260Y-147899120D02*
X158798260Y-146098260D01*
X110998000Y-143510000D02*
X111760000Y-144272000D01*
X98552000Y-143510000D02*
X110998000Y-143510000D01*
X97790000Y-144272000D02*
X98552000Y-143510000D01*
X111760000Y-144272000D02*
X111760000Y-146050000D01*
X97790000Y-146050000D02*
X97790000Y-144272000D01*
%TO.N,+5V*%
X108970000Y-69850000D02*
X122174000Y-69850000D01*
X122174000Y-69850000D02*
X123431300Y-68592700D01*
X123431300Y-68592700D02*
X135432800Y-68592700D01*
X135432800Y-68592700D02*
X138874500Y-72034400D01*
X138874500Y-72034400D02*
X138874500Y-76682600D01*
X140931900Y-78740000D02*
X143780000Y-78740000D01*
X138874500Y-76682600D02*
X140931900Y-78740000D01*
D17*
%TO.N,/SDA*%
X165100000Y-74930000D02*
X168122600Y-74930000D01*
X168122600Y-74930000D02*
X169303700Y-76111100D01*
X169303700Y-100191298D02*
X169405300Y-100292898D01*
X169303700Y-76111100D02*
X169303700Y-100191298D01*
X169405300Y-100292898D02*
X169405300Y-112826800D01*
X169405300Y-112826800D02*
X155702000Y-126530100D01*
X155702000Y-126530100D02*
X73812400Y-126530100D01*
X73812400Y-126530100D02*
X70231000Y-122948700D01*
X70231000Y-122948700D02*
X70231000Y-118719600D01*
X73380600Y-115570000D02*
X77470000Y-115570000D01*
X70231000Y-118719600D02*
X73380600Y-115570000D01*
%TO.N,/SCL*%
X89585800Y-107950000D02*
X86160000Y-107950000D01*
X93408500Y-111772700D02*
X89585800Y-107950000D01*
X93408500Y-121704100D02*
X93408500Y-111772700D01*
X96570800Y-124866400D02*
X93408500Y-121704100D01*
X107784900Y-124866400D02*
X96570800Y-124866400D01*
X136131300Y-96520000D02*
X107784900Y-124866400D01*
X143243300Y-96520000D02*
X136131300Y-96520000D01*
X162293300Y-77470000D02*
X143243300Y-96520000D01*
X165100000Y-77470000D02*
X162293300Y-77470000D01*
%TD*%
M02*
