M48
; DRILL file {KiCad (5.1.9)-1} date 08/03/21 11:54:46
; FORMAT={-:-/ absolute / metric / decimal}
; #@! TF.CreationDate,2021-08-03T11:54:46-05:00
; #@! TF.GenerationSoftware,Kicad,Pcbnew,(5.1.9)-1
; #@! TF.FileFunction,Plated,1,2,PTH
FMAT,2
METRIC
T1C0.900
T2C1.000
T3C1.200
%
G90
G05
T1
X116.027Y-60.795
X118.567Y-60.795
X125.273Y-60.617
X127.813Y-60.617
X133.248Y-60.554
X135.788Y-60.554
T2
X77.47Y-69.85
X77.47Y-72.39
X77.47Y-74.93
X77.47Y-77.47
X77.47Y-80.01
X77.47Y-82.55
X77.47Y-85.09
X77.47Y-87.63
X77.47Y-90.17
X77.47Y-92.71
X77.47Y-95.25
X77.47Y-97.79
X77.47Y-100.33
X77.47Y-102.87
X77.47Y-105.41
X77.47Y-107.95
X77.47Y-110.49
X77.47Y-113.03
X77.47Y-115.57
X77.47Y-118.11
X86.16Y-69.85
X86.16Y-72.39
X86.16Y-74.93
X86.16Y-77.47
X86.16Y-80.01
X86.16Y-82.55
X86.16Y-85.09
X86.16Y-87.63
X86.16Y-90.17
X86.16Y-92.71
X86.16Y-95.25
X86.16Y-97.79
X86.16Y-100.33
X86.16Y-102.87
X86.16Y-105.41
X86.16Y-107.95
X86.16Y-110.49
X86.16Y-113.03
X86.16Y-115.57
X86.16Y-118.11
X97.79Y-146.05
X100.28Y-69.85
X100.28Y-72.39
X100.28Y-74.93
X100.28Y-77.47
X100.28Y-80.01
X100.28Y-82.55
X100.28Y-85.09
X100.28Y-87.63
X100.28Y-90.17
X100.28Y-92.71
X100.28Y-95.25
X100.28Y-97.79
X100.28Y-100.33
X100.28Y-102.87
X100.28Y-105.41
X100.28Y-107.95
X100.28Y-110.49
X100.28Y-113.03
X100.28Y-115.57
X100.28Y-118.11
X100.33Y-146.05
X102.87Y-146.05
X108.97Y-69.85
X108.97Y-72.39
X108.97Y-74.93
X108.97Y-77.47
X108.97Y-80.01
X108.97Y-82.55
X108.97Y-85.09
X108.97Y-87.63
X108.97Y-90.17
X108.97Y-92.71
X108.97Y-95.25
X108.97Y-97.79
X108.97Y-100.33
X108.97Y-102.87
X108.97Y-105.41
X108.97Y-107.95
X108.97Y-110.49
X108.97Y-113.03
X108.97Y-115.57
X108.97Y-118.11
X111.76Y-146.05
X114.3Y-146.05
X116.84Y-146.05
X125.73Y-146.05
X128.27Y-146.05
X130.81Y-146.05
X132.08Y-71.12
X132.08Y-73.66
X132.08Y-76.2
X132.08Y-78.74
X132.08Y-81.28
X132.08Y-83.82
X133.35Y-104.14
X133.35Y-146.05
X135.89Y-104.14
X135.89Y-146.05
X138.43Y-104.14
X138.43Y-146.05
X140.97Y-104.14
X143.78Y-71.12
X143.78Y-73.66
X143.78Y-76.2
X143.78Y-78.74
X143.78Y-81.28
X143.78Y-83.82
X156.21Y-146.05
X158.75Y-146.05
X158.852Y-52.667
X161.29Y-146.05
X161.392Y-52.667
X163.83Y-146.05
X165.1Y-69.85
X165.1Y-72.39
X165.1Y-74.93
X165.1Y-77.47
X165.1Y-80.01
X165.1Y-82.55
X165.1Y-85.09
X165.1Y-87.63
X165.1Y-90.17
X165.1Y-92.71
X165.1Y-95.25
X165.1Y-97.79
X166.37Y-146.05
X168.91Y-146.05
X181.88Y-69.85
X181.88Y-72.39
X181.88Y-74.93
X181.88Y-77.47
X181.88Y-80.01
X181.88Y-82.55
X181.88Y-85.09
X181.88Y-87.63
X181.88Y-90.17
X181.88Y-92.71
X181.88Y-95.25
X181.88Y-97.79
X185.42Y-146.05
X187.96Y-146.05
X190.5Y-136.84
X190.5Y-146.05
X193.04Y-136.84
X193.04Y-146.05
X202.88Y-118.11
X202.88Y-120.65
X204.47Y-146.05
X207.01Y-146.05
X209.55Y-136.84
X209.55Y-146.05
X212.09Y-52.07
X212.09Y-54.61
X212.09Y-57.15
X212.09Y-59.69
X212.09Y-62.23
X212.09Y-64.77
X212.09Y-74.93
X212.09Y-77.47
X212.09Y-80.01
X212.09Y-82.55
X212.09Y-85.09
X212.09Y-87.63
X212.09Y-97.79
X212.09Y-100.33
X212.09Y-102.87
X212.09Y-105.41
X212.09Y-107.95
X212.09Y-110.49
X212.09Y-118.11
X212.09Y-120.65
X212.09Y-123.19
X212.09Y-125.73
X212.09Y-136.84
X212.09Y-146.05
T3
X94.958Y-60.782
X107.658Y-60.782
X119.24Y-53.061
X131.94Y-53.061
X141.567Y-60.554
X154.267Y-60.554
T0
M30
